<?xml version="1.0" encoding="UTF-8"?>
<!DOCTYPE svg PUBLIC "-//W3C//DTD SVG 1.1//EN" "http://www.w3.org/Graphics/SVG/1.1/DTD/svg11.dtd">
<!-- Creator: CorelDRAW 2019 (64-Bit) -->
<svg xmlns="http://www.w3.org/2000/svg" xml:space="preserve" width="175.989mm" height="70.485mm" version="1.1" style="shape-rendering:geometricPrecision; text-rendering:geometricPrecision; image-rendering:optimizeQuality; fill-rule:evenodd; clip-rule:evenodd"
viewBox="0 0 17598.9 7048.5"
 xmlns:xlink="http://www.w3.org/1999/xlink"
 xmlns:xodm="http://www.corel.com/coreldraw/odm/2003">
 <defs>
  <style type="text/css">
   <![CDATA[
    .fil0 {fill:#239CEB}
    .fil1 {fill:#239CEB;fill-rule:nonzero}
   ]]>
  </style>
 </defs>
 <g id="Слой_x0020_1">
  <metadata id="CorelCorpID_0Corel-Layer"/>
  <path class="fil0" d="M3518.37 6.35c772.36,0 1486.58,248.62 2067.29,670 17.59,-10.55 146.5,-114.41 343.09,-114.41 315.64,0 571.51,255.87 571.51,571.51 0,315.64 -255.87,571.51 -571.51,571.51 -315.64,0 -571.51,-255.87 -571.51,-571.51 0,-106.24 29.03,-205.69 79.53,-290.91l-0.13 0.21c-540.68,-386.61 -1202.89,-614.15 -1918.27,-614.15 -1823.64,0 -3302,1478.36 -3302,3302 0,601.12 160.63,1164.73 441.31,1650.23l-186.3 121.38c-303.37,-520.49 -477.26,-1125.71 -477.26,-1771.61 0,-1946.39 1577.86,-3524.25 3524.25,-3524.25zm-2389.14 5347.19c315.64,0 571.51,255.87 571.51,571.51 0,111.36 -31.89,215.26 -86.97,303.12 538.19,380.68 1195.24,604.43 1904.6,604.43 1413.85,0 2619.95,-888.7 3090.7,-2137.88l236.48 0c-480.82,1374.3 -1788.77,2360.13 -3327.18,2360.13 -768.46,0 -1479.36,-246.11 -2058.5,-663.59 -93.33,66.31 -207.44,105.3 -330.64,105.3 -315.64,0 -571.51,-255.87 -571.51,-571.51 0,-315.64 255.87,-571.51 571.51,-571.51zm0 230.21c188.5,0 341.3,152.8 341.3,341.3 0,188.5 -152.8,341.3 -341.3,341.3 -188.5,0 -341.3,-152.8 -341.3,-341.3 0,-188.5 152.8,-341.3 341.3,-341.3zm4799.52 -4791.6c188.5,0 341.3,152.8 341.3,341.3 0,188.5 -152.8,341.3 -341.3,341.3 -188.5,0 -341.3,-152.8 -341.3,-341.3 0,-188.5 152.8,-341.3 341.3,-341.3zm683.65 1582.82c-61.04,-163.3 -134.63,-320.47 -219.6,-470.35l194.43 -107.71c103.69,183.12 191.46,376.43 261.45,578.06l-236.28 0z"/>
  <path class="fil0" d="M6248.87 3530.6c0,1508.01 -1222.49,2730.5 -2730.5,2730.5l0 -238.48c1376.3,0 2492.02,-1115.72 2492.02,-2492.02l238.48 0zm-2730.5 -2492.02c-1376.3,0 -2492.02,1115.72 -2492.02,2492.02l-238.48 0c0,-1508.01 1222.49,-2730.5 2730.5,-2730.5l0 238.48z"/>
  <path class="fil0" d="M3624.29 1559.66c876.84,46.37 1601.8,665.01 1808.52,1489.3 -347.43,-313.2 -1023,-530.87 -1808.52,-548.92l0 -940.38zm1836.09 1865.02l-1484.14 0c-40.19,-174.45 -177.51,-311.76 -351.95,-351.95l0 -340.07c942.89,20.6 1708.85,314.45 1836.09,692.02zm-27.57 587.56c-206.72,824.29 -931.68,1442.93 -1808.52,1489.3l0 -940.38c169.41,-3.89 333.69,-17.09 490.68,-38.51 70.6,170.24 238.4,290 434.18,290 259.5,0 469.86,-210.36 469.86,-469.86 0,-22.61 -1.63,-44.84 -4.71,-66.59 167.44,-76.38 309.22,-165.44 418.51,-263.96zm-1808.52 326.73l0 -350.5c174.45,-40.19 311.76,-177.51 351.95,-351.95l1487.59 0c-52.93,173.82 -241.07,330.39 -519.86,451.47 -83.68,-129.4 -229.24,-215.06 -394.82,-215.06 -247.29,0 -449.96,191.03 -468.48,433.58 -145.74,17.87 -298.56,29.01 -456.38,32.46zm-211.84 1162.57c-876.84,-46.37 -1601.8,-665.01 -1808.52,-1489.3 347.43,313.2 1023,530.87 1808.52,548.92l0 940.38zm-1839.54 -1865.02l1487.59 0c40.19,174.45 177.51,311.76 351.95,351.95l0 350.5c-951.57,-20.79 -1723.04,-319.87 -1839.54,-702.45zm31.02 -587.56c206.72,-824.29 931.68,-1442.93 1808.52,-1489.3l0 940.38c-168.8,3.88 -332.51,17 -488.99,38.28 -76.41,-156.03 -236.75,-263.48 -422.2,-263.48 -259.5,0 -469.86,210.36 -469.86,469.86 0,12 0.46,23.89 1.34,35.66 -171.92,77.4 -317.29,168.07 -428.81,268.6zm1808.52 -316.3l0 340.07c-174.45,40.19 -311.76,177.51 -351.95,351.95l-1484.14 0c57.38,-170.27 244.68,-323.51 519.51,-442.34 81.62,138.94 232.6,232.22 405.39,232.22 253.25,0 459.66,-200.36 469.46,-451.21 141.32,-16.83 289.19,-27.36 441.73,-30.69z"/>
  <circle class="fil0" cx="3518.37" cy="3530.6" r="237.02"/>
  <circle class="fil0" cx="2501.26" cy="2744.7" r="237.02"/>
  <circle class="fil0" cx="4549.15" cy="4342.79" r="237.02"/>
  <path class="fil1" d="M7254.08 3825.62l-280.12 -391.86 0 595.99 -268.19 0 0 -998.29 268.19 0 348.66 511.07 348.66 -511.07 268.19 0 0 998.29 -268.19 0 0 -595.99 -280.12 391.86 -137.08 0zm879.09 -333.75c0,-67.55 8.44,-131.12 25.33,-190.72 16.88,-59.6 46.44,-111.5 88.65,-155.7 42.22,-44.21 99.09,-79.22 170.6,-105.05 71.52,-25.82 161.42,-38.74 269.69,-38.74l53.64 0c108.27,0 198.17,12.92 269.69,38.74 71.52,25.83 128.38,60.84 170.6,105.05 42.22,44.2 71.77,96.1 88.65,155.7 16.89,59.6 25.33,123.17 25.33,190.72l0 77.48c0,67.54 -8.44,131.11 -25.33,190.71 -16.88,59.6 -46.43,111.5 -88.65,155.71 -42.22,44.2 -99.08,79.21 -170.6,105.04 -71.52,25.83 -161.42,38.74 -269.69,38.74l-53.64 0c-108.27,0 -198.17,-12.91 -269.69,-38.74 -71.51,-25.83 -128.38,-60.84 -170.6,-105.04 -42.21,-44.21 -71.77,-96.11 -88.65,-155.71 -16.89,-59.6 -25.33,-123.17 -25.33,-190.71l0 -77.48zm268.2 38.74c0,37.74 1.73,74.25 5.21,109.51 3.48,35.26 14.9,66.3 34.27,93.12 19.37,26.82 50.16,48.18 92.38,64.07 42.21,15.9 102.56,23.84 181.03,23.84 78.47,0 138.82,-7.94 181.03,-23.84 42.22,-15.89 73.01,-37.25 92.38,-64.07 19.37,-26.82 30.8,-57.86 34.27,-93.12 3.48,-35.26 5.22,-71.77 5.22,-109.51 0,-37.75 -1.74,-74.01 -5.22,-108.77 -3.47,-34.77 -14.9,-65.56 -34.27,-92.38 -19.37,-26.82 -50.16,-48.18 -92.38,-64.07 -42.21,-15.89 -102.56,-23.84 -181.03,-23.84 -78.47,0 -138.82,7.95 -181.03,23.84 -42.22,15.89 -73.01,37.25 -92.38,64.07 -19.37,26.82 -30.79,57.61 -34.27,92.38 -3.48,34.76 -5.21,71.02 -5.21,108.77zm1878.86 141.54l0 -640.69 268.19 0 0 998.29 -268.19 0 -522.99 -640.69 0 640.69 -268.19 0 0 -998.29 268.19 0 522.99 640.69zm461.89 -180.28c0,-67.55 8.44,-131.12 25.33,-190.72 16.88,-59.6 45.69,-111.5 86.42,-155.7 40.72,-44.21 95.85,-79.22 165.39,-105.05 69.53,-25.82 156.94,-38.74 262.23,-38.74l53.64 0c67.55,0 133.11,4.23 196.68,12.67 63.57,8.44 126.15,20.61 187.74,36.5l0 242.87c-34.77,-9.93 -69.79,-18.38 -105.05,-25.33 -35.26,-6.95 -70.03,-12.66 -104.3,-17.13 -34.27,-4.47 -67.05,-7.7 -98.34,-9.69 -31.28,-1.99 -59.35,-2.98 -84.18,-2.98 -77.48,0 -137.33,7.2 -179.54,21.61 -42.22,14.4 -73.01,34.51 -92.38,60.34 -19.37,25.83 -30.79,56.62 -34.27,92.38 -3.48,35.76 -5.21,74.99 -5.21,117.71 0,42.71 1.73,81.95 5.21,117.71 3.48,35.75 14.9,66.8 34.27,93.12 19.37,26.32 50.16,46.68 92.38,61.09 42.21,14.4 102.06,21.6 179.54,21.6 24.83,0 52.9,-0.99 84.18,-2.98 31.29,-1.98 64.07,-5.21 98.34,-9.68 34.27,-4.47 69.04,-10.43 104.3,-17.88 35.26,-7.45 70.28,-16.14 105.05,-26.08l0 244.36c-61.59,14.9 -124.17,26.57 -187.74,35.01 -63.57,8.45 -129.13,12.67 -196.68,12.67l-53.64 0c-105.29,0 -192.7,-12.91 -262.23,-38.74 -69.54,-25.83 -124.67,-60.84 -165.39,-105.04 -40.73,-44.21 -69.54,-96.11 -86.42,-155.71 -16.89,-59.6 -25.33,-123.17 -25.33,-190.71l0 -77.48zm2096.4 -222.01l-686.89 0 0 149 537.89 0 0 238.4 -537.89 0 0 134.09 686.89 0 0 238.4 -955.08 0 0 -998.29 955.08 0 0 238.4zm968.48 402.29l0 -640.69 268.19 0 0 998.29 -268.19 0 -522.99 -640.69 0 640.69 -268.19 0 0 -998.29 268.19 0 522.99 640.69zm812.03 357.6l0 -759.89 -387.39 0 0 -238.4 1044.48 0 0 238.4 -388.89 0 0 759.89 -268.2 0zm1768.61 -759.89l-686.89 0 0 149 537.89 0 0 238.4 -537.89 0 0 134.09 686.89 0 0 238.4 -955.08 0 0 -998.29 955.08 0 0 238.4zm946.13 759.89l-199.66 -312.9c-53.64,0 -105.29,-0.49 -154.96,-1.49 -49.66,-0.99 -98.34,-5.46 -146.02,-13.41l0 327.8 -268.19 0 0 -998.29c85.42,-9.93 175.07,-17.38 268.94,-22.35 93.87,-4.96 186,-7.45 276.39,-7.45l41.72 0c83.44,0 152.48,8.7 207.11,26.08 54.63,17.38 98.34,40.97 131.12,70.77 32.78,29.8 55.62,64.57 68.54,104.3 12.91,39.73 19.36,81.95 19.36,126.65l0 59.6c0,62.58 -12.41,119.45 -37.24,170.6 -24.84,51.16 -69.04,90.64 -132.61,118.45l184.75 292.04 0 59.6 -259.25 0zm-220.52 -789.69c-34.76,0 -77.73,0.99 -128.88,2.98 -51.16,1.99 -101.57,5.46 -151.24,10.43l0 211.58c46.69,5.96 90.89,9.68 132.61,11.17 41.72,1.49 75.5,2.24 101.32,2.24 59.6,0 105.79,-2.73 138.57,-8.2 32.78,-5.46 56.87,-13.66 72.26,-24.58 15.4,-10.93 24.59,-24.84 27.57,-41.72 2.98,-16.89 4.47,-37.25 4.47,-61.09 0,-12.91 -0.99,-25.58 -2.98,-38 -1.99,-12.41 -9.19,-23.59 -21.61,-33.52 -12.41,-9.93 -32.03,-17.63 -58.85,-23.09 -26.82,-5.47 -64.57,-8.2 -113.24,-8.2z"/>
 </g>
</svg>
